<svg id="SvgjsSvg1743" width="731" height="1034.3125457763672" xmlns="http://www.w3.org/2000/svg" version="1.1" xmlns:xlink="http://www.w3.org/1999/xlink" xmlns:svgjs="http://svgjs.com/svgjs"><defs id="SvgjsDefs1744"><pattern id="SvgjsPattern1909" x="0" y="0" width="75" height="75" patternUnits="userSpaceOnUse"><image id="SvgjsImage1910" xlink:href="https://www.processon.com/assets/images/designer/network_aliyun/Database/datamanagement.svg" width="75" height="75" preserveAspectRatio="none" crossOrigin="anonymous" x="0" y="0"></image></pattern><pattern id="SvgjsPattern1917" x="0" y="0" width="75" height="75" patternUnits="userSpaceOnUse"><image id="SvgjsImage1918" xlink:href="https://www.processon.com/assets/images/designer/network_aliyun/Network/SLB.svg" width="75" height="75" preserveAspectRatio="none" crossOrigin="anonymous" x="0" y="0"></image></pattern><pattern id="SvgjsPattern1925" x="0" y="0" width="75" height="75" patternUnits="userSpaceOnUse"><image id="SvgjsImage1926" xlink:href="https://www.processon.com/assets/images/designer/network_aliyun/StorageandCDN/CDN.svg" width="75" height="75" preserveAspectRatio="none" crossOrigin="anonymous" x="0" y="0"></image></pattern><pattern id="SvgjsPattern1933" x="0" y="0" width="75" height="75" patternUnits="userSpaceOnUse"><image id="SvgjsImage1934" xlink:href="https://www.processon.com/assets/images/designer/network_aliyun/Network/VPC.svg" width="75" height="75" preserveAspectRatio="none" crossOrigin="anonymous" x="0" y="0"></image></pattern><pattern id="SvgjsPattern1941" x="0" y="0" width="75" height="75" patternUnits="userSpaceOnUse"><image id="SvgjsImage1942" xlink:href="https://www.processon.com/assets/images/designer/network_aliyun/Network/VPC.svg" width="75" height="75" preserveAspectRatio="none" crossOrigin="anonymous" x="0" y="0"></image></pattern><pattern id="SvgjsPattern1952" x="0" y="0" width="75" height="75" patternUnits="userSpaceOnUse"><image id="SvgjsImage1953" xlink:href="https://www.processon.com/assets/images/designer/network_aliyun/Database/datamanagement.svg" width="75" height="75" preserveAspectRatio="none" crossOrigin="anonymous" x="0" y="0"></image></pattern><pattern id="SvgjsPattern1960" x="0" y="0" width="75" height="75" patternUnits="userSpaceOnUse"><image id="SvgjsImage1961" xlink:href="https://www.processon.com/assets/images/designer/network_aliyun/Database/datamanagement.svg" width="75" height="75" preserveAspectRatio="none" crossOrigin="anonymous" x="0" y="0"></image></pattern></defs><rect id="SvgjsRect1745" width="731" height="1034.3125457763672" fill="#ffffff"></rect><g id="SvgjsG1746" transform="translate(123.79840485391242,738.0933016701879)"><path id="SvgjsPath1747" d="M 0 4Q 0 0 4 0L 554.5554489875176 0Q 558.5554489875176 0 558.5554489875176 4L 558.5554489875176 104.29693767384833Q 558.5554489875176 108.29693767384833 554.5554489875176 108.29693767384833L 4 108.29693767384833Q 0 108.29693767384833 0 104.29693767384833Z" stroke="none" fill-opacity="1" fill="#9999ff"></path><g id="SvgjsG1748"><text id="SvgjsText1749" font-family="微软雅黑" text-anchor="middle" font-size="13px" width="539px" fill="#323232" font-weight="400" align="middle" lineHeight="125%" anchor="middle" family="微软雅黑" size="13px" weight="400" font-style="" opacity="1" y="44.52346883692417" transform="rotate(0)"></text></g></g><g id="SvgjsG1750" transform="translate(25.007164237180177,717.9743210005591)"><path id="SvgjsPath1751" d="M 0 10.5L 680.4053418663354 10.5" stroke-dasharray="10,6" stroke="rgba(136,136,136,1)" stroke-width="1" fill="none"></path><path id="SvgjsPath1752" d="M 0 0L 680.4053418663354 0L 680.4053418663354 21L 0 21Z" stroke="none" fill="none"></path></g><g id="SvgjsG1753" transform="translate(25.007164237180177,569.2927389835837)"><path id="SvgjsPath1754" d="M 0 10.5L 680.4053418663354 10.5" stroke-dasharray="10,6" stroke="rgba(136,136,136,1)" stroke-width="1" fill="none"></path><path id="SvgjsPath1755" d="M 0 0L 680.4053418663354 0L 680.4053418663354 21L 0 21Z" stroke="none" fill="none"></path></g><g id="SvgjsG1756" transform="translate(124.00056590856644,87.37243270874023)"><path id="SvgjsPath1757" d="M 0 4Q 0 0 4 0L 555.0078320995448 0Q 559.0078320995448 0 559.0078320995448 4L 559.0078320995448 100.75Q 559.0078320995448 104.75 555.0078320995448 104.75L 4 104.75Q 0 104.75 0 100.75Z" stroke="none" fill-opacity="1" fill="#66ffb3"></path><g id="SvgjsG1758"><text id="SvgjsText1759" font-family="微软雅黑" text-anchor="middle" font-size="13px" width="540px" fill="#323232" font-weight="400" align="middle" lineHeight="125%" anchor="middle" family="微软雅黑" size="13px" weight="400" font-style="" opacity="1" y="42.75" transform="rotate(0)"></text></g></g><g id="SvgjsG1760" transform="translate(123.79840485391242,873.5430016054474)"><path id="SvgjsPath1761" d="M 0 4Q 0 0 4 0L 554.5554489875176 0Q 558.5554489875176 0 558.5554489875176 4L 558.5554489875176 110.76949457985529Q 558.5554489875176 114.76949457985529 554.5554489875176 114.76949457985529L 4 114.76949457985529Q 0 114.76949457985529 0 110.76949457985529Z" stroke="none" fill-opacity="1" fill="#99ccff"></path><g id="SvgjsG1762"><text id="SvgjsText1763" font-family="微软雅黑" text-anchor="middle" font-size="13px" width="539px" fill="#323232" font-weight="400" align="middle" lineHeight="125%" anchor="middle" family="微软雅黑" size="13px" weight="400" font-style="" opacity="1" y="47.759747289927645" transform="rotate(0)"></text></g></g><g id="SvgjsG1764" transform="translate(25.007164237180177,909.4277488953751)"><path id="SvgjsPath1765" d="M 0 0L 95 0L 95 43L 0 43Z" stroke="none" fill="none"></path><g id="SvgjsG1766"><text id="SvgjsText1767" font-family="微软雅黑" text-anchor="middle" font-size="13px" width="95px" fill="#323232" font-weight="400" align="middle" lineHeight="125%" anchor="middle" family="微软雅黑" size="13px" weight="400" font-style="" opacity="1" y="11.875" transform="rotate(0)"><tspan id="SvgjsTspan1768" dy="16" x="47.5"><tspan id="SvgjsTspan1769" style="text-decoration:;">运行环境</tspan></tspan></text></g></g><g id="SvgjsG1770" transform="translate(161.59433820595598,933.5625190734866)"><path id="SvgjsPath1771" d="M 0 0L 121 0L 121 31L 0 31Z" stroke="rgba(50,50,50,1)" stroke-width="2" fill-opacity="1" fill="#ffffff"></path><g id="SvgjsG1772"><text id="SvgjsText1773" font-family="微软雅黑" text-anchor="middle" font-size="13px" width="101px" fill="#323232" font-weight="400" align="middle" lineHeight="125%" anchor="middle" family="微软雅黑" size="13px" weight="400" font-style="" opacity="1" y="5.875" transform="rotate(0)"><tspan id="SvgjsTspan1774" dy="16" x="60.5"><tspan id="SvgjsTspan1775" style="text-decoration:;">windows</tspan></tspan></text></g></g><g id="SvgjsG1776" transform="translate(123.79840485391242,590.2927389835837)"><path id="SvgjsPath1777" d="M 0 4Q 0 0 4 0L 554.5554489875176 0Q 558.5554489875176 0 558.5554489875176 4L 558.5554489875176 123.68158201697543Q 558.5554489875176 127.68158201697543 554.5554489875176 127.68158201697543L 4 127.68158201697543Q 0 127.68158201697543 0 123.68158201697543Z" stroke="none" fill-opacity="1" fill="#b266ff"></path><g id="SvgjsG1778"><text id="SvgjsText1779" font-family="微软雅黑" text-anchor="middle" font-size="13px" width="539px" fill="#323232" font-weight="400" align="middle" lineHeight="125%" anchor="middle" family="微软雅黑" size="13px" weight="400" font-style="" opacity="1" y="54.21579100848771" transform="rotate(0)"></text></g></g><g id="SvgjsG1780" transform="translate(456.72269341313677,666.0309080648117)"><path id="SvgjsPath1781" d="M 0 0L 134 0L 134 41.681582016975426L 0 41.681582016975426Z" stroke="rgba(50,50,50,1)" stroke-width="2" fill-opacity="1" fill="#ffffff"></path><g id="SvgjsG1782"><text id="SvgjsText1783" font-family="微软雅黑" text-anchor="middle" font-size="13px" width="114px" fill="#323232" font-weight="400" align="middle" lineHeight="125%" anchor="middle" family="微软雅黑" size="13px" weight="400" font-style="" opacity="1" y="11.215791008487713" transform="rotate(0)"><tspan id="SvgjsTspan1784" dy="16" x="67"><tspan id="SvgjsTspan1785" style="text-decoration:;">读写数据库</tspan></tspan></text></g></g><g id="SvgjsG1786" transform="translate(25.007164237180177,632.6335299920714)"><path id="SvgjsPath1787" d="M 0 0L 95 0L 95 43L 0 43Z" stroke="none" fill="none"></path><g id="SvgjsG1788"><text id="SvgjsText1789" font-family="微软雅黑" text-anchor="middle" font-size="13px" width="95px" fill="#323232" font-weight="400" align="middle" lineHeight="125%" anchor="middle" family="微软雅黑" size="13px" weight="400" font-style="" opacity="1" y="11.875" transform="rotate(0)"><tspan id="SvgjsTspan1790" dy="16" x="47.5"><tspan id="SvgjsTspan1791" style="text-decoration:;">数据处理层</tspan></tspan></text></g></g><g id="SvgjsG1792" transform="translate(123.79840485391242,349.83214804984755)"><path id="SvgjsPath1793" d="M 0 4Q 0 0 4 0L 554.5554489875176 0Q 558.5554489875176 0 558.5554489875176 4L 558.5554489875176 213.14855958542375Q 558.5554489875176 217.14855958542375 554.5554489875176 217.14855958542375L 4 217.14855958542375Q 0 217.14855958542375 0 213.14855958542375Z" stroke="none" fill-opacity="1" fill="#99ff99"></path><g id="SvgjsG1794"><text id="SvgjsText1795" font-family="微软雅黑" text-anchor="middle" font-size="13px" width="539px" fill="#323232" font-weight="400" align="middle" lineHeight="125%" anchor="middle" family="微软雅黑" size="13px" weight="400" font-style="" opacity="1" y="98.94927979271188" transform="rotate(0)"></text></g></g><g id="SvgjsG1796" transform="translate(25.007164237180177,436.9064278425594)"><path id="SvgjsPath1797" d="M 0 0L 95 0L 95 43L 0 43Z" stroke="none" fill="none"></path><g id="SvgjsG1798"><text id="SvgjsText1799" font-family="微软雅黑" text-anchor="middle" font-size="13px" width="95px" fill="#323232" font-weight="400" align="middle" lineHeight="125%" anchor="middle" family="微软雅黑" size="13px" weight="400" font-style="" opacity="1" y="11.875" transform="rotate(0)"><tspan id="SvgjsTspan1800" dy="16" x="47.5"><tspan id="SvgjsTspan1801" style="text-decoration:;">应用服务层</tspan></tspan></text></g></g><g id="SvgjsG1802" transform="translate(25.007164237180177,988.3124961853027)"><path id="SvgjsPath1803" d="M 0 10.5L 680.4053418663354 10.5" stroke-dasharray="10,6" stroke="rgba(136,136,136,1)" stroke-width="1" fill="none"></path><path id="SvgjsPath1804" d="M 0 0L 680.4053418663354 0L 680.4053418663354 21L 0 21Z" stroke="none" fill="none"></path></g><g id="SvgjsG1805" transform="translate(456.72269341313677,605.3684502720338)"><path id="SvgjsPath1806" d="M 0 0L 134 0L 134 42.344039809753326L 0 42.344039809753326Z" stroke="rgba(50,50,50,1)" stroke-width="2" fill-opacity="1" fill="#ffffff"></path><g id="SvgjsG1807"><text id="SvgjsText1808" font-family="微软雅黑" text-anchor="middle" font-size="13px" width="114px" fill="#323232" font-weight="400" align="middle" lineHeight="125%" anchor="middle" family="微软雅黑" size="13px" weight="400" font-style="" opacity="1" y="11.547019904876663" transform="rotate(0)"><tspan id="SvgjsTspan1809" dy="16" x="67"><tspan id="SvgjsTspan1810" style="text-decoration:;">redis数据缓存</tspan></tspan></text></g></g><g id="SvgjsG1811" transform="translate(25.007164237180177,125.24743270874023)"><path id="SvgjsPath1812" d="M 0 0L 95 0L 95 43L 0 43Z" stroke="none" fill="none"></path><g id="SvgjsG1813"><text id="SvgjsText1814" font-family="微软雅黑" text-anchor="middle" font-size="13px" width="95px" fill="#323232" font-weight="400" align="middle" lineHeight="125%" anchor="middle" family="微软雅黑" size="13px" weight="400" font-style="" opacity="1" y="11.875" transform="rotate(0)"><tspan id="SvgjsTspan1815" dy="16" x="47.5"><tspan id="SvgjsTspan1816" style="text-decoration:;">应用表现层</tspan></tspan></text></g></g><g id="SvgjsG1817" transform="translate(272.594338205956,101.24743270874023)"><path id="SvgjsPath1818" d="M 0 0L 95 0L 95 77L 0 77Z" stroke="rgba(50,50,50,1)" stroke-width="2" fill-opacity="1" fill="#ffffff"></path><g id="SvgjsG1819"><text id="SvgjsText1820" font-family="微软雅黑" text-anchor="middle" font-size="13px" width="75px" fill="#323232" font-weight="400" align="middle" lineHeight="125%" anchor="middle" family="微软雅黑" size="13px" weight="400" font-style="" opacity="1" y="12.875" transform="rotate(0)"><tspan id="SvgjsTspan1821" dy="16" x="47.5"><tspan id="SvgjsTspan1822" style="text-decoration:;">APP</tspan></tspan><tspan id="SvgjsTspan1823" dy="16" x="47.5"><tspan id="SvgjsTspan1824" style="text-decoration:;">ios</tspan></tspan><tspan id="SvgjsTspan1825" dy="16" x="47.5"><tspan id="SvgjsTspan1826" style="text-decoration:;">android</tspan></tspan></text></g></g><g id="SvgjsG1827" transform="translate(149.95385613024848,101.24743270874023)"><path id="SvgjsPath1828" d="M 0 0L 95.45864997326714 0L 95.45864997326714 77L 0 77Z" stroke="rgba(50,50,50,1)" stroke-width="2" fill-opacity="1" fill="#ffffff"></path><g id="SvgjsG1829"><text id="SvgjsText1830" font-family="微软雅黑" text-anchor="middle" font-size="13px" width="76px" fill="#323232" font-weight="400" align="middle" lineHeight="125%" anchor="middle" family="微软雅黑" size="13px" weight="400" font-style="" opacity="1" y="4.875" transform="rotate(0)"><tspan id="SvgjsTspan1831" dy="16" x="48"><tspan id="SvgjsTspan1832" style="text-decoration:;">Web</tspan></tspan><tspan id="SvgjsTspan1833" dy="16" x="48"><tspan id="SvgjsTspan1834" style="text-decoration:;">html5</tspan></tspan><tspan id="SvgjsTspan1835" dy="16" x="48"><tspan id="SvgjsTspan1836" style="text-decoration:;">vue</tspan></tspan><tspan id="SvgjsTspan1837" dy="16" x="48"><tspan id="SvgjsTspan1838" style="text-decoration:;">JQuery</tspan></tspan></text></g></g><g id="SvgjsG1839" transform="translate(399.6777136902663,101.24743270874023)"><path id="SvgjsPath1840" d="M 0 0L 94.6250114440918 0L 94.6250114440918 77L 0 77Z" stroke="rgba(50,50,50,1)" stroke-width="2" fill-opacity="1" fill="#ffffff"></path><g id="SvgjsG1841"><text id="SvgjsText1842" font-family="微软雅黑" text-anchor="middle" font-size="13px" width="75px" fill="#323232" font-weight="400" align="middle" lineHeight="125%" anchor="middle" family="微软雅黑" size="13px" weight="400" font-style="" opacity="1" y="12.875" transform="rotate(0)"><tspan id="SvgjsTspan1843" dy="16" x="47.5"><tspan id="SvgjsTspan1844" style="text-decoration:;">微信</tspan></tspan><tspan id="SvgjsTspan1845" dy="16" x="47.5"><tspan id="SvgjsTspan1846" style="text-decoration:;">公众号</tspan></tspan><tspan id="SvgjsTspan1847" dy="16" x="47.5"><tspan id="SvgjsTspan1848" style="text-decoration:;">小程序</tspan></tspan></text></g></g><g id="SvgjsG1849" transform="translate(25.007164237180177,328.83214804984755)"><path id="SvgjsPath1850" d="M 0 10.5L 680.4053418663354 10.5" stroke-dasharray="10,6" stroke="rgba(136,136,136,1)" stroke-width="1" fill="none"></path><path id="SvgjsPath1851" d="M 0 0L 680.4053418663354 0L 680.4053418663354 21L 0 21Z" stroke="none" fill="none"></path></g><g id="SvgjsG1852" transform="translate(25.007164237180177,245.7371477050488)"><path id="SvgjsPath1853" d="M 0 0L 95 0L 95 43L 0 43Z" stroke="none" fill="none"></path><g id="SvgjsG1854"><text id="SvgjsText1855" font-family="微软雅黑" text-anchor="middle" font-size="13px" width="95px" fill="#323232" font-weight="400" align="middle" lineHeight="125%" anchor="middle" family="微软雅黑" size="13px" weight="400" font-style="" opacity="1" y="11.875" transform="rotate(0)"><tspan id="SvgjsTspan1856" dy="16" x="47.5"><tspan id="SvgjsTspan1857" style="text-decoration:;">网络传输层</tspan></tspan></text></g></g><g id="SvgjsG1858" transform="translate(123.79840485391242,213.12243270874023)"><path id="SvgjsPath1859" d="M 0 4Q 0 0 4 0L 555.4121542088528 0Q 559.4121542088528 0 559.4121542088528 4L 559.4121542088528 111.70971534110731Q 559.4121542088528 115.70971534110731 555.4121542088528 115.70971534110731L 4 115.70971534110731Q 0 115.70971534110731 0 111.70971534110731Z" stroke="none" fill-opacity="1" fill="#ffcc99"></path><g id="SvgjsG1860"><text id="SvgjsText1861" font-family="微软雅黑" text-anchor="middle" font-size="13px" width="540px" fill="#323232" font-weight="400" align="middle" lineHeight="125%" anchor="middle" family="微软雅黑" size="13px" weight="400" font-style="" opacity="1" y="48.229857670553656" transform="rotate(0)"></text></g></g><g id="SvgjsG1862" transform="translate(25.007164237180177,770.741770507112)"><path id="SvgjsPath1863" d="M 0 0L 95 0L 95 43L 0 43Z" stroke="none" fill="none"></path><g id="SvgjsG1864"><text id="SvgjsText1865" font-family="微软雅黑" text-anchor="middle" font-size="13px" width="95px" fill="#323232" font-weight="400" align="middle" lineHeight="125%" anchor="middle" family="微软雅黑" size="13px" weight="400" font-style="" opacity="1" y="11.875" transform="rotate(0)"><tspan id="SvgjsTspan1866" dy="16" x="47.5"><tspan id="SvgjsTspan1867" style="text-decoration:;">数据库</tspan></tspan></text></g></g><g id="SvgjsG1868" transform="translate(25.007164237180177,849.6100274741739)"><path id="SvgjsPath1869" d="M 0 10.5L 680.4053418663354 10.5" stroke-dasharray="10,6" stroke="rgba(136,136,136,1)" stroke-width="1" fill="none"></path><path id="SvgjsPath1870" d="M 0 0L 680.4053418663354 0L 680.4053418663354 21L 0 21Z" stroke="none" fill="none"></path></g><g id="SvgjsG1871" transform="translate(181.08239404499113,605.3684502720338)"><path id="SvgjsPath1872" d="M 0 0L 135.11526934126027 0L 135.11526934126027 42.34403980975344L 0 42.34403980975344Z" stroke="rgba(50,50,50,1)" stroke-width="2" fill-opacity="1" fill="#ffffff"></path><g id="SvgjsG1873"><text id="SvgjsText1874" font-family="微软雅黑" text-anchor="middle" font-size="13px" width="116px" fill="#323232" font-weight="400" align="middle" lineHeight="125%" anchor="middle" family="微软雅黑" size="13px" weight="400" font-style="" opacity="1" y="11.54701990487672" transform="rotate(0)"><tspan id="SvgjsTspan1875" dy="16" x="68"><tspan id="SvgjsTspan1876" style="text-decoration:;">存储过程</tspan></tspan></text></g></g><g id="SvgjsG1877" transform="translate(180.544551517954,666.0309080648117)"><path id="SvgjsPath1878" d="M 0 0L 136.19095439533453 0L 136.19095439533453 41.681582016975426L 0 41.681582016975426Z" stroke="rgba(50,50,50,1)" stroke-width="2" fill-opacity="1" fill="#ffffff"></path><g id="SvgjsG1879"><text id="SvgjsText1880" font-family="微软雅黑" text-anchor="middle" font-size="13px" width="117px" fill="#323232" font-weight="400" align="middle" lineHeight="125%" anchor="middle" family="微软雅黑" size="13px" weight="400" font-style="" opacity="1" y="11.215791008487713" transform="rotate(0)"><tspan id="SvgjsTspan1881" dy="16" x="68.5"><tspan id="SvgjsTspan1882" style="text-decoration:;">事务</tspan></tspan></text></g></g><g id="SvgjsG1883" transform="translate(519.403789403164,933.5625190734866)"><path id="SvgjsPath1884" d="M 0 0L 121 0L 121 31L 0 31Z" stroke="rgba(50,50,50,1)" stroke-width="2" fill-opacity="1" fill="#ffffff"></path><g id="SvgjsG1885"><text id="SvgjsText1886" font-family="微软雅黑" text-anchor="middle" font-size="13px" width="101px" fill="#323232" font-weight="400" align="middle" lineHeight="125%" anchor="middle" family="微软雅黑" size="13px" weight="400" font-style="" opacity="1" y="5.875" transform="rotate(0)"><tspan id="SvgjsTspan1887" dy="16" x="60.5"><tspan id="SvgjsTspan1888" style="text-decoration:;">linux</tspan></tspan></text></g></g><g id="SvgjsG1889" transform="translate(142.3497333413992,25.01247787475586)"><path id="SvgjsPath1890" d="M 0 0L 516.9114419858113 0L 516.9114419858113 48.800018310546875L 0 48.800018310546875Z" stroke="rgba(50,50,50,1)" stroke-width="2" fill-opacity="1" fill="#ffffff"></path><g id="SvgjsG1891"><text id="SvgjsText1892" font-family="微软雅黑" text-anchor="middle" font-size="26px" width="497px" fill="#323232" font-weight="400" align="middle" lineHeight="125%" anchor="middle" family="微软雅黑" size="26px" weight="400" font-style="" opacity="1" y="3.1500091552734375" transform="rotate(0)"><tspan id="SvgjsTspan1893" dy="32" x="258.5"><tspan id="SvgjsTspan1894" style="text-decoration:;">基于3SABC的区域生态环境监测预警系统</tspan></tspan></text></g></g><g id="SvgjsG1895" transform="translate(296.8261293476712,881.8125190734866)"><path id="SvgjsPath1896" d="M 0 0L 212.5 0L 212.5 33.5L 0 33.5Z" stroke="rgba(50,50,50,1)" stroke-width="2" fill-opacity="1" fill="#ffffff"></path><g id="SvgjsG1897"><text id="SvgjsText1898" font-family="微软雅黑" text-anchor="middle" font-size="13px" width="193px" fill="#323232" font-weight="400" align="middle" lineHeight="125%" anchor="middle" family="微软雅黑" size="13px" weight="400" font-style="" opacity="1" y="7.125" transform="rotate(0)"><tspan id="SvgjsTspan1899" dy="16" x="106.5"><tspan id="SvgjsTspan1900" style="text-decoration:;">负载均衡器</tspan></tspan></text></g></g><g id="SvgjsG1901" transform="translate(535.7837156509197,101.24743270874023)"><path id="SvgjsPath1902" d="M 0 0L 94.6250114440918 0L 94.6250114440918 77L 0 77Z" stroke="rgba(50,50,50,1)" stroke-width="2" fill-opacity="1" fill="#ffffff"></path><g id="SvgjsG1903"><text id="SvgjsText1904" font-family="微软雅黑" text-anchor="middle" font-size="13px" width="75px" fill="#323232" font-weight="400" align="middle" lineHeight="125%" anchor="middle" family="微软雅黑" size="13px" weight="400" font-style="" opacity="1" y="28.875" transform="rotate(0)"><tspan id="SvgjsTspan1905" dy="16" x="47.5"><tspan id="SvgjsTspan1906" style="text-decoration:;">Restfu接口</tspan></tspan></text></g></g><g id="SvgjsG1907" transform="translate(180.544551517954,747.741770507112)"><path id="SvgjsPath1908" d="M 0 0L 75 0L 75 75L 0 75Z" stroke="none" fill="url(#SvgjsPattern1909)"></path><g id="SvgjsG1911"><text id="SvgjsText1912" font-family="微软雅黑" text-anchor="middle" font-size="13px" width="115px" fill="#323232" font-weight="400" align="middle" lineHeight="125%" anchor="middle" family="微软雅黑" size="13px" weight="400" font-style="" opacity="1" y="80.375" transform="rotate(0)"><tspan id="SvgjsTspan1913" dy="16" x="37.5"><tspan id="SvgjsTspan1914" style="text-decoration:;">MySQL</tspan></tspan></text></g></g><g id="SvgjsG1915" transform="translate(160.18318111688205,229.7371477050488)"><path id="SvgjsPath1916" d="M 0 0L 75 0L 75 75L 0 75Z" stroke="none" fill="url(#SvgjsPattern1917)"></path><g id="SvgjsG1919"><text id="SvgjsText1920" font-family="微软雅黑" text-anchor="middle" font-size="13px" width="115px" fill="#323232" font-weight="400" align="middle" lineHeight="125%" anchor="middle" family="微软雅黑" size="13px" weight="400" font-style="" opacity="1" y="80.375" transform="rotate(0)"><tspan id="SvgjsTspan1921" dy="16" x="37.5"><tspan id="SvgjsTspan1922" style="text-decoration:;">SLB</tspan></tspan></text></g></g><g id="SvgjsG1923" transform="translate(282.594338205956,229.7371477050488)"><path id="SvgjsPath1924" d="M 0 0L 75 0L 75 75L 0 75Z" stroke="none" fill="url(#SvgjsPattern1925)"></path><g id="SvgjsG1927"><text id="SvgjsText1928" font-family="微软雅黑" text-anchor="middle" font-size="13px" width="115px" fill="#323232" font-weight="400" align="middle" lineHeight="125%" anchor="middle" family="微软雅黑" size="13px" weight="400" font-style="" opacity="1" y="80.375" transform="rotate(0)"><tspan id="SvgjsTspan1929" dy="16" x="37.5"><tspan id="SvgjsTspan1930" style="text-decoration:;">CDN</tspan></tspan></text></g></g><g id="SvgjsG1931" transform="translate(409.4902194123122,229.7371477050488)"><path id="SvgjsPath1932" d="M 0 0L 75 0L 75 75L 0 75Z" stroke="none" fill="url(#SvgjsPattern1933)"></path><g id="SvgjsG1935"><text id="SvgjsText1936" font-family="微软雅黑" text-anchor="middle" font-size="13px" width="115px" fill="#323232" font-weight="400" align="middle" lineHeight="125%" anchor="middle" family="微软雅黑" size="13px" weight="400" font-style="" opacity="1" y="80.375" transform="rotate(0)"><tspan id="SvgjsTspan1937" dy="16" x="37.5"><tspan id="SvgjsTspan1938" style="text-decoration:;">TCP/UDP</tspan></tspan></text></g></g><g id="SvgjsG1939" transform="translate(545.5962213729656,229.7371477050488)"><path id="SvgjsPath1940" d="M 0 0L 75 0L 75 75L 0 75Z" stroke="none" fill="url(#SvgjsPattern1941)"></path><g id="SvgjsG1943"><text id="SvgjsText1944" font-family="微软雅黑" text-anchor="middle" font-size="13px" width="115px" fill="#323232" font-weight="400" align="middle" lineHeight="125%" anchor="middle" family="微软雅黑" size="13px" weight="400" font-style="" opacity="1" y="80.375" transform="rotate(0)"><tspan id="SvgjsTspan1945" dy="16" x="37.5"><tspan id="SvgjsTspan1946" style="text-decoration:;">FTP/HTTP/HTTPS</tspan></tspan></text></g></g><g id="SvgjsG1947" transform="translate(25.007164237180177,192.12243270874023)"><path id="SvgjsPath1948" d="M 0 10.5L 680.4053418663354 10.5" stroke-dasharray="10,6" stroke="rgba(136,136,136,1)" stroke-width="1" fill="none"></path><path id="SvgjsPath1949" d="M 0 0L 680.4053418663354 0L 680.4053418663354 21L 0 21Z" stroke="none" fill="none"></path></g><g id="SvgjsG1950" transform="translate(348.594229937578,747.741770507112)"><path id="SvgjsPath1951" d="M 0 0L 75 0L 75 75L 0 75Z" stroke="none" fill="url(#SvgjsPattern1952)"></path><g id="SvgjsG1954"><text id="SvgjsText1955" font-family="微软雅黑" text-anchor="middle" font-size="13px" width="115px" fill="#323232" font-weight="400" align="middle" lineHeight="125%" anchor="middle" family="微软雅黑" size="13px" weight="400" font-style="" opacity="1" y="80.375" transform="rotate(0)"><tspan id="SvgjsTspan1956" dy="16" x="37.5"><tspan id="SvgjsTspan1957" style="text-decoration:;">Redis</tspan></tspan></text></g></g><g id="SvgjsG1958" transform="translate(542.403789403164,747.741770507112)"><path id="SvgjsPath1959" d="M 0 0L 75 0L 75 75L 0 75Z" stroke="none" fill="url(#SvgjsPattern1960)"></path><g id="SvgjsG1962"><text id="SvgjsText1963" font-family="微软雅黑" text-anchor="middle" font-size="13px" width="115px" fill="#323232" font-weight="400" align="middle" lineHeight="125%" anchor="middle" family="微软雅黑" size="13px" weight="400" font-style="" opacity="1" y="80.375" transform="rotate(0)"><tspan id="SvgjsTspan1964" dy="16" x="37.5"><tspan id="SvgjsTspan1965" style="text-decoration:;">Graph Database</tspan></tspan></text></g></g><g id="SvgjsG1966" transform="translate(147.68318111688205,370.91250228881836)"><path id="SvgjsPath1967" d="M 0 5Q 0 0 5 0L 95 0Q 100 0 100 5L 100 65Q 100 70 95 70L 5 70Q 0 70 0 65L 0 5Z" stroke="rgba(0,100,0,1)" stroke-width="2" fill-opacity="1" fill="#3399ff"></path><g id="SvgjsG1968"><text id="SvgjsText1969" font-family="微软雅黑" text-anchor="middle" font-size="13px" width="80px" fill="#323232" font-weight="400" align="middle" lineHeight="125%" anchor="middle" family="微软雅黑" size="13px" weight="400" font-style="" opacity="1" y="17.375" transform="rotate(0)"><tspan id="SvgjsTspan1970" dy="16" x="50"><tspan id="SvgjsTspan1971" style="text-decoration:;">用户上传图片</tspan></tspan><tspan id="SvgjsTspan1972" dy="16" x="50"><tspan id="SvgjsTspan1973" style="text-decoration:;">接口</tspan></tspan></text></g></g><g id="SvgjsG1974" transform="translate(147.68318111688205,459.91250228881836)"><path id="SvgjsPath1975" d="M 0 5Q 0 0 5 0L 505.78589646157843 0Q 510.78589646157843 0 510.78589646157843 5L 510.78589646157843 90.39999389648438Q 510.78589646157843 95.39999389648438 505.78589646157843 95.39999389648438L 5 95.39999389648438Q 0 95.39999389648438 0 90.39999389648438L 0 5Z" stroke="rgba(0,100,0,1)" stroke-width="2" fill-opacity="1" fill="#3399ff"></path><g id="SvgjsG1976"><text id="SvgjsText1977" font-family="微软雅黑" text-anchor="middle" font-size="13px" width="491px" fill="#323232" font-weight="400" align="middle" lineHeight="125%" anchor="middle" family="微软雅黑" size="13px" weight="400" font-style="" opacity="1" y="38.07499694824219" transform="rotate(0)"><tspan id="SvgjsTspan1978" dy="16" x="255.5"><tspan id="SvgjsTspan1979" style="text-decoration:;">Django：后台数据的存储与展示</tspan></tspan></text></g></g><g id="SvgjsG1980" transform="translate(276.18981540362324,370.91250228881836)"><path id="SvgjsPath1981" d="M 0 5Q 0 0 5 0L 377.2792621748372 0Q 382.2792621748372 0 382.2792621748372 5L 382.2792621748372 65Q 382.2792621748372 70 377.2792621748372 70L 5 70Q 0 70 0 65L 0 5Z" stroke="rgba(0,100,0,1)" stroke-width="2" fill-opacity="1" fill="#3399ff"></path><g id="SvgjsG1982"><text id="SvgjsText1983" font-family="微软雅黑" text-anchor="middle" font-size="13px" width="363px" fill="#323232" font-weight="400" align="middle" lineHeight="125%" anchor="middle" family="微软雅黑" size="13px" weight="400" font-style="" opacity="1" y="25.375" transform="rotate(0)"><tspan id="SvgjsTspan1984" dy="16" x="191.5"><tspan id="SvgjsTspan1985" style="text-decoration:;">机器学习算法：ResNet_vd系列模型、ResNet_vd系列模型</tspan></tspan></text></g></g></svg>